<?xml version="1.0" encoding="UTF-8"?>
<svg id="Layer_1" xmlns="http://www.w3.org/2000/svg" version="1.1" viewBox="0 0 131.8 131.8">
  <!-- Generator: Adobe Illustrator 30.4.0, SVG Export Plug-In . SVG Version: 2.1.4 Build 226)  -->
  <defs>
    <style>
      .st0 {
        fill-rule: evenodd;
      }

      .st0, .st1, .st2, .st3 {
        stroke: #000;
      }

      .st0, .st1, .st3 {
        stroke-miterlimit: 10;
      }

      .st0, .st3 {
        fill: #a87c9f;
        stroke-width: .75px;
      }

      .st1 {
        fill: #b8b0ac;
        stroke-width: .5px;
      }

      .st2 {
        fill: none;
        stroke-linecap: round;
        stroke-linejoin: round;
        stroke-width: 2px;
      }
    </style>
  </defs>
  <g>
    <rect class="st2" x="87.69" y="35.81" width="24.51" height="9.53" rx="1" ry="1"/>
    <rect class="st2" x="87.69" y="50.79" width="9.53" height="9.53" rx="1" ry="1"/>
    <rect class="st2" x="102.67" y="50.79" width="9.53" height="9.53" rx="1" ry="1"/>
  </g>
  <path class="st1" d="M73.43,54.74c-1.59-.01-3.12.6-4.26,1.71h-.01s-.48.5-.48.5c-.39.39-.39,1.01,0,1.4l.7.7c.39.39,1.01.39,1.4,0l.48-.48c.58-.56,1.35-.87,2.15-.86.8,0,1.57.33,2.14.91.57.58.9,1.36.9,2.17,0,.81-.3,1.6-.86,2.18l-3.08,3.1c-.31.31-.69.56-1.1.71-.41.15-.85.22-1.29.19-.44-.03-.86-.16-1.25-.37-.1-.05-.19-.11-.28-.18-.45-.31-1.06-.42-1.5-.1l-.79.59c-.44.33-.54.95-.14,1.33.38.37.82.69,1.29.95.76.42,1.6.67,2.47.73.87.06,1.74-.06,2.55-.37.81-.31,1.55-.78,2.16-1.4l3.09-3.11.02-.02c1.1-1.15,1.71-2.68,1.69-4.27-.01-1.59-.65-3.11-1.77-4.24-1.12-1.13-2.64-1.77-4.23-1.78Z"/>
  <path class="st1" d="M68.14,60.34c-.87-.06-1.74.06-2.55.37-.81.31-1.55.78-2.16,1.4l-3.09,3.11-.02.02c-1.1,1.15-1.71,2.68-1.69,4.27.01,1.59.65,3.11,1.77,4.24,1.12,1.13,2.64,1.77,4.23,1.78,1.59.01,3.12-.6,4.26-1.71h.01s.48-.5.48-.5c.39-.39.39-1.01,0-1.4l-.7-.7c-.39-.39-1.01-.39-1.4,0l-.48.48c-.58.56-1.35.87-2.15.86-.8,0-1.57-.33-2.14-.91-.57-.58-.9-1.36-.9-2.17,0-.81.3-1.6.86-2.18l3.08-3.1c.31-.31.69-.56,1.1-.71.41-.15.85-.22,1.29-.19.44.03.86.16,1.25.37.1.05.19.11.28.18.45.31,1.06.42,1.5.1l.79-.59c.44-.33.54-.95.14-1.33-.38-.37-.82-.69-1.29-.95-.76-.42-1.6-.67-2.47-.73Z"/>
  <g>
    <path class="st0" d="M49.97,82.95c-.65-1.63-1.65-3.12-2.99-4.47l2.81-2.82c2.09,2.09,3.53,4.45,4.32,7.09.48,1.6.72,3.31.73,5.11h0c0,2.64-.52,5.06-1.55,7.27-.83,1.78-2,3.43-3.5,4.93l-2.82-2.82c1.03-1.03,1.86-2.15,2.48-3.35.94-1.82,1.41-3.83,1.41-6.03h0c0-1.77-.29-3.4-.89-4.92Z"/>
    <path class="st0" d="M35.25,85.5c.65-.65,1.43-.97,2.35-.97.92,0,1.7.32,2.35.97h0c.64.65.97,1.43.97,2.35h0c0,.92-.32,1.7-.97,2.35,0,0,0,0,0,0-.65.64-1.43.96-2.35.96-.92,0-1.7-.32-2.34-.97h0c-.64-.65-.97-1.43-.97-2.34h0c0-.93.32-1.71.96-2.35,0,0,0,0,0,0Z"/>
    <path class="st0" d="M27.14,87.85c0-.13,0-.25,0-.38.09-2.72,1.1-5.06,3.05-7l2.82,2.82c-1.26,1.26-1.88,2.78-1.88,4.56h0c0,.21,0,.41.02.6h0c.12,1.53.74,2.85,1.86,3.97,0,0,0,0,0,0l-2.83,2.82h0c-2.03-2.04-3.05-4.5-3.05-7.39h0Z"/>
    <path class="st0" d="M20.49,85.48c.47-3.76,2.11-7.03,4.9-9.82l2.82,2.82c-2.27,2.27-3.54,4.94-3.83,8.03-.04.44-.06.89-.06,1.35,0,3.66,1.29,6.78,3.88,9.38h0s-2.82,2.83-2.82,2.83h0c-3.36-3.37-5.04-7.44-5.04-12.2,0-.82.05-1.61.15-2.39Z"/>
    <path class="st3" d="M48.04,87.85h0c0,1.99-.48,3.77-1.43,5.35h0c-.44.72-.98,1.4-1.62,2.04h0s-2.82-2.82-2.82-2.82c.18-.19.35-.38.51-.58h0c.92-1.14,1.38-2.47,1.38-3.98h0c0-1.79-.63-3.31-1.89-4.56l2.83-2.83s.01.02.02.03c.68.68,1.25,1.42,1.7,2.2h0c.89,1.53,1.33,3.25,1.33,5.16Z"/>
  </g>
</svg>