<?xml version="1.0" encoding="UTF-8"?>
<svg id="Layer_1" xmlns="http://www.w3.org/2000/svg" version="1.1" viewBox="0 0 288.42 240">
  <!-- Generator: Adobe Illustrator 30.3.0, SVG Export Plug-In . SVG Version: 2.1.3 Build 182)  -->
  <defs>
    <style>
      .st0 {
        fill: #6a9f58;
        stroke: #6a9f58;
        stroke-miterlimit: 10;
        stroke-width: 12px;
      }

      .st1 {
        fill: #fff;
      }

      .st2 {
        fill: #e6e6e6;
      }
    </style>
  </defs>
  <path class="st2" d="M253.37,0H95.68c-15.36,0-29.55,7.21-37.23,18.9L6.83,97.51c-9.11,13.88-9.11,30.98,0,44.86l51.61,78.57c7.68,11.69,21.87,18.9,37.23,18.9h56.08v.17h101.62c19.37,0,35.05-15.68,35.05-35.05V35.05c0-19.37-15.68-35.05-35.05-35.05Z"/>
  <rect class="st0" x="89.93" y="49.89" width="143.8" height="144.66" rx="64.25" ry="64.25"/>
  <g>
    <polygon class="st1" points="107.67 139.18 154.16 167.94 161.35 156.71 114.85 127.95 107.67 139.18"/>
    <polygon class="st1" points="202.72 72.56 144.91 162.15 156.14 169.16 213.95 79.57 202.72 72.56"/>
  </g>
</svg>